<?xml version="1.0" encoding="utf-8"?>
<svg viewBox="0 0 470 134" xmlns="http://www.w3.org/2000/svg">
  <path fill="#45433F" opacity="1.000000" stroke="none" d=" M253.960602,65.995560 C253.886078,71.983353 253.882721,77.973061 253.722290,83.958549 C253.384933,96.544624 247.415878,102.625069 234.838760,102.793427 C225.860565,102.913597 216.834091,103.058762 207.906235,102.293648 C198.863113,101.518661 193.738235,95.946518 193.325256,86.845802 C192.888046,77.211166 192.854813,67.522026 193.342331,57.891987 C193.810837,48.637550 199.766983,42.793217 209.053696,42.356750 C218.521759,41.911755 228.045380,41.874168 237.510574,42.344444 C248.619156,42.896378 253.468124,49.467876 253.762360,63.898705 C253.818085,65.102654 253.889343,65.549103 253.960602,65.995560 M234.338623,72.494812 C234.138443,54.451008 236.586578,57.257168 218.630829,56.999012 C218.298248,56.994228 217.963776,57.024036 217.633102,56.998989 C213.989883,56.722988 212.418152,58.676098 212.392563,62.056831 C212.339661,69.042213 212.357315,76.028427 212.394119,83.014046 C212.411438,86.300133 214.215668,87.825493 217.429642,87.823181 C221.421616,87.820305 225.413620,87.829666 229.405548,87.817665 C232.960495,87.806969 234.469376,85.954964 234.354477,82.468010 C234.255920,79.477249 234.336441,76.480583 234.338623,72.494812 z"/>
  <path fill="#45433F" opacity="1.000000" stroke="none" d=" M262.116455,66.014183 C262.210297,63.859776 262.261597,61.702530 262.405090,59.551434 C263.161835,48.206944 269.196716,42.420242 280.601196,42.170315 C285.090332,42.071934 289.582794,42.127346 294.905151,42.110168 C296.493439,42.044205 297.250366,41.980804 298.007294,41.917408 C301.039856,42.007080 304.072418,42.096748 307.867859,42.282730 C312.030487,44.025906 315.430267,45.672768 318.830048,47.319633 C320.197754,52.006317 322.352203,56.626583 322.754700,61.394737 C323.410889,69.168869 323.050598,77.042168 322.887817,84.868820 C322.665070,95.577858 317.603424,101.782127 307.135742,102.440521 C296.872314,103.086052 286.490723,102.859039 276.224426,102.126152 C268.398621,101.567497 263.650909,96.193367 262.819336,88.372795 C262.310303,83.585197 262.419342,78.731873 262.269623,73.030403 C262.231110,70.106552 262.173798,68.060364 262.116455,66.014183 M281.815521,65.733528 C281.881989,66.489334 281.948456,67.245132 281.801971,68.916283 C281.787659,73.575478 281.836395,78.236015 281.737946,82.893433 C281.666290,86.281410 283.366028,87.777054 286.573395,87.812225 C290.400391,87.854187 294.229614,87.766777 298.055054,87.855957 C302.064941,87.949432 303.791931,86.028061 303.743866,82.090813 C303.666656,75.768051 303.668915,69.443062 303.740540,63.120174 C303.793488,58.447083 301.842163,56.227798 296.261322,57.037846 C295.503387,57.083134 294.745453,57.128422 293.095337,57.025719 C291.789062,57.018448 290.482788,57.002792 289.176544,57.005291 C281.985229,57.019039 281.457214,57.610905 281.815521,65.733528 z"/>
  <path fill="#43413D" opacity="1.000000" stroke="none" d=" M346.041046,24.579597 C347.861694,24.721966 349.682343,24.864336 351.947205,25.041441 C351.947205,37.764015 351.947205,50.524364 351.947205,63.228958 C357.826569,64.990944 361.594513,63.753899 364.243195,58.142513 C366.699188,52.939400 369.202484,46.354183 373.637909,43.883377 C378.105988,41.394398 384.978882,43.219551 390.798187,43.164139 C391.294159,43.159416 391.790833,43.227772 393.102539,43.318699 C389.101868,50.154922 385.760620,57.025486 381.329620,63.101318 C377.108826,68.888878 377.106323,73.608521 381.024078,79.530106 C385.475769,86.258713 388.913544,93.658127 393.204559,101.521858 C386.525665,101.521858 380.594971,101.688232 374.688385,101.384987 C373.470581,101.322472 371.983704,99.722252 371.237366,98.464836 C368.439392,93.750908 365.420532,89.077148 363.386414,84.025169 C361.142944,78.453255 357.485138,77.584915 352.056519,79.063225 C352.056519,86.240074 352.056519,93.522842 352.056519,101.140556 C345.642639,101.140556 339.578491,101.140556 332.811920,101.140556 C332.811920,81.146957 332.811920,61.051140 332.827698,40.094910 C332.761475,38.147186 332.679474,37.059875 332.687775,35.523361 C332.845215,31.701883 332.912354,28.329609 333.387390,24.915993 C334.877930,24.775711 335.960602,24.676773 337.043243,24.577835 C338.738556,24.650248 340.433899,24.722660 342.925598,24.797888 C344.494995,24.727001 345.268036,24.653297 346.041046,24.579597 z"/>
  <path fill="#44423E" opacity="1.000000" stroke="none" d=" M405.475159,66.097733 C411.969696,65.594475 418.075989,65.136520 424.190369,64.854973 C427.648804,64.695717 431.120575,64.826248 434.524811,64.826248 C435.429138,57.638641 434.474487,56.437893 428.101624,56.710342 C419.463837,57.079620 410.831238,57.570881 401.424866,58.049042 C401.424866,54.126732 401.235229,50.370575 401.559082,46.659229 C401.639404,45.738731 403.334930,44.298805 404.369965,44.223484 C415.492554,43.414108 426.625671,42.475742 437.767822,42.290520 C447.796753,42.123798 453.937866,48.461853 454.062988,58.517418 C454.238922,72.657257 454.107452,86.800919 454.107452,101.239700 C448.383698,101.239700 442.946869,101.239700 437.445618,101.239700 C436.907166,99.721268 436.358643,98.174561 436.070404,97.361763 C429.525085,99.198524 423.278076,101.627953 416.811127,102.611916 C406.443665,104.189354 398.875702,100.070663 396.931152,91.845612 C394.215729,80.359978 395.873749,70.002388 405.475159,66.097733 M431.170166,78.420120 C427.176086,78.448814 423.106750,78.043755 419.224457,78.717018 C417.643524,78.991173 415.660065,81.484200 415.400330,83.200790 C415.234100,84.299507 417.888885,86.960281 419.273407,86.956337 C424.476166,86.941551 429.676605,86.120094 435.678375,85.520966 C433.987427,82.490494 437.566742,78.482445 431.170166,78.420120 z"/>
  <path fill="#44423E" opacity="1.000000" stroke="none" d=" M61.502178,24.719278 C64.691078,24.704523 67.419601,24.767580 70.592957,24.730322 C71.469681,24.679495 71.901588,24.728987 73.083488,24.782503 C75.899277,24.735271 77.965065,24.684013 80.030853,24.632755 C82.819145,24.766560 85.607437,24.900362 88.627441,25.045284 C88.627441,30.022934 88.627441,34.762150 88.627441,40.007191 C81.665192,40.007191 74.887886,40.007191 68.110588,40.007191 C61.478821,40.007191 54.847054,40.007191 47.923943,40.007191 C47.923943,46.087032 47.923943,51.813347 47.923943,57.947826 C58.374783,57.947826 68.798058,57.947826 79.611755,57.947826 C79.611755,63.216873 79.611755,68.098976 79.611755,73.411652 C69.263954,73.411652 58.829159,73.411652 47.744873,73.411652 C47.744873,82.857033 47.744873,91.911629 47.744873,101.216125 C40.850040,101.216125 34.608929,101.216125 28.110962,101.216125 C28.110962,75.807823 28.110962,50.585815 28.110962,24.797091 C39.180050,24.797091 50.110928,24.797091 61.502178,24.719278 z"/>
  <path fill="#EDB74F" opacity="1.000000" stroke="none" d=" M165.650116,107.663376 C159.145126,111.972740 152.923035,116.077675 146.644745,120.094757 C142.741730,122.592056 138.753601,124.956337 134.467422,127.586700 C125.226891,121.851540 115.199829,116.311935 105.983284,109.650848 C100.477013,105.671310 96.240997,99.934189 91.159950,94.705093 C90.622574,95.151039 89.429405,96.141197 88.236237,97.131363 C87.791100,97.062096 87.345963,96.992828 86.900833,96.923553 C87.508987,91.576385 88.117149,86.229218 88.888123,79.450478 C93.890450,83.574890 97.414558,86.480522 101.085060,89.506851 C99.724052,90.015266 98.435959,90.496445 97.118546,90.988579 C100.372581,97.206696 114.289276,104.409943 120.776535,103.392998 C126.096504,102.559036 128.801682,99.953613 129.014984,94.391609 C129.531891,80.912285 129.709778,67.420280 130.118271,53.936241 C130.205383,51.060841 128.865250,50.170086 126.239037,50.059437 C120.918884,49.835297 115.596725,49.531300 110.298050,49.023663 C109.129601,48.911720 108.055473,47.815163 106.937912,47.172005 C108.107155,46.410870 109.215729,45.124935 110.456383,44.981510 C115.245499,44.427853 120.097702,44.410809 124.881882,43.828224 C126.750412,43.600681 129.697128,42.774891 130.064377,41.579826 C130.907196,38.837177 132.022552,35.766094 128.907990,32.931526 C123.039124,27.590277 123.849663,20.729801 130.296799,17.312170 C134.513657,15.076814 139.025955,15.930954 141.996658,19.526850 C144.779739,22.895630 145.238754,28.580019 141.919266,31.421114 C137.952621,34.816101 138.679352,38.534946 139.217316,43.174591 C144.629028,43.509277 149.901306,43.827560 155.172272,44.166279 C156.666382,44.262299 158.243774,44.159714 159.622177,44.624809 C160.806564,45.024448 161.761658,46.103695 162.818146,46.882423 C161.732849,47.578957 160.699173,48.767719 159.553452,48.887836 C154.260361,49.442764 148.940598,49.815117 143.621399,50.022270 C140.341156,50.150021 138.849396,51.273689 138.992020,54.838837 C139.497864,67.485184 139.631393,80.146782 140.171494,92.791267 C140.526611,101.105103 144.756592,104.263908 153.074921,102.983795 C159.011322,102.070244 167.681976,96.950356 172.702927,91.283173 C171.273346,90.695999 169.937988,90.147522 168.199860,89.433624 C171.978317,86.376297 175.608337,83.439079 180.594498,79.404533 C181.317200,86.132462 181.887711,91.443459 182.598480,98.060402 C180.240509,96.232880 179.016296,95.284058 178.074661,94.554253 C173.999557,98.864555 169.954407,103.143188 165.650116,107.663376 M130.058090,26.224667 C130.865585,29.467499 133.015854,31.307356 136.139725,30.059286 C137.719330,29.428196 139.554428,26.976789 139.498383,25.412014 C139.443695,23.885551 137.364243,21.591782 135.752121,21.140316 C132.645370,20.270292 130.342545,21.880781 130.058090,26.224667 z"/>
</svg>